<?xml version="1.0" encoding="UTF-8" standalone="no"?>
<!DOCTYPE svg PUBLIC "-//W3C//DTD SVG 1.1//EN"
 "http://www.w3.org/Graphics/SVG/1.1/DTD/svg11.dtd">
<!-- Generated by graphviz version 2.42.4 (0)
 -->
<!-- Title: DFD Pages: 1 -->
<svg width="887pt" height="758pt"
 viewBox="0.00 0.00 887.20 757.56" xmlns="http://www.w3.org/2000/svg" xmlns:xlink="http://www.w3.org/1999/xlink">
<g id="graph0" class="graph" transform="scale(1 1) rotate(0) translate(21.6 735.96)">
<title>DFD</title>
<polygon fill="white" stroke="transparent" points="-21.6,21.6 -21.6,-735.96 865.6,-735.96 865.6,21.6 -21.6,21.6"/>
<text text-anchor="middle" x="422" y="-697.56" font-family="DejaVu Sans" font-size="16.00">Направления и результаты анализов</text>
<text text-anchor="middle" x="422" y="-679.56" font-family="DejaVu Sans" font-size="16.00">Текущее состояние — модель As&#45;Is</text>
<text text-anchor="middle" x="422" y="-661.56" font-family="DejaVu Sans" font-size="16.00">Овал: операция · Прямоугольник: участник · Две линии: хранилище</text>
<text text-anchor="middle" x="422" y="-643.56" font-family="DejaVu Sans" font-size="16.00">[Д] и пунктир: допущение · П/Л/Д: статус в реестре · K1–K9: меры в data&#45;protection.md</text>
<g id="clust1" class="cluster">
<title>cluster_company</title>
<polygon fill="white" stroke="#94a3b8" stroke-dasharray="5,2" points="8,-88 8,-626.36 440,-626.36 440,-88 8,-88"/>
<text text-anchor="middle" x="224" y="-612.76" font-family="DejaVu Sans" font-size="12.00">Управляемый контур компании (не отдельные серверы)</text>
</g>
<!-- lab -->
<g id="node1" class="node">
<title>lab</title>
<polygon fill="#f1f3f5" stroke="black" points="632,-36 440,-36 440,0 632,0 632,-36"/>
<text text-anchor="middle" x="536" y="-14.6" font-family="DejaVu Sans" font-size="13.00">Лаборатория [Д: канал]</text>
</g>
<!-- P3.2 -->
<g id="node5" class="node">
<title>P3.2</title>
<ellipse fill="#e7f0fb" stroke="black" cx="284" cy="-564.84" rx="148.48" ry="32.55"/>
<text text-anchor="middle" x="284" y="-568.44" font-family="DejaVu Sans" font-size="13.00">P3.2. Принять и проверить</text>
<text text-anchor="middle" x="284" y="-554.44" font-family="DejaVu Sans" font-size="13.00">результат</text>
</g>
<!-- lab&#45;&gt;P3.2 -->
<g id="edge2" class="edge">
<title>lab&#45;&gt;P3.2</title>
<path fill="none" stroke="black" stroke-dasharray="5,2" d="M561.08,-36.18C602.34,-64.44 680,-117.63 680,-117.63 680,-448.31 680,-448.31 680,-448.31 680,-448.31 495.81,-502.04 378.66,-536.22"/>
<polygon fill="black" stroke="black" points="377.86,-533.72 371.39,-538.34 379.33,-538.76 377.86,-533.72"/>
<text text-anchor="middle" x="762" y="-264.45" font-family="DejaVu Sans" font-size="11.00">F3.2: Результат анализа [Д]</text>
</g>
<!-- patient -->
<g id="node2" class="node">
<title>patient</title>
<polygon fill="#f1f3f5" stroke="black" points="534,-237.25 448,-237.25 448,-201.25 534,-201.25 534,-237.25"/>
<text text-anchor="middle" x="491" y="-215.85" font-family="DejaVu Sans" font-size="13.00">Пациент</text>
</g>
<!-- doctor -->
<g id="node3" class="node">
<title>doctor</title>
<polygon fill="#f1f3f5" stroke="black" points="360,-237.25 154,-237.25 154,-201.25 360,-201.25 360,-237.25"/>
<text text-anchor="middle" x="257" y="-215.85" font-family="DejaVu Sans" font-size="13.00">Медицинский специалист</text>
</g>
<!-- P3.1 -->
<g id="node4" class="node">
<title>P3.1</title>
<ellipse fill="#e7f0fb" stroke="black" cx="257" cy="-118.63" rx="162.77" ry="22.76"/>
<text text-anchor="middle" x="257" y="-115.23" font-family="DejaVu Sans" font-size="13.00">P3.1. Оформить направление</text>
</g>
<!-- doctor&#45;&gt;P3.1 -->
<g id="edge8" class="edge">
<title>doctor&#45;&gt;P3.1</title>
<path fill="none" stroke="black" d="M257,-201.08C257,-186.85 257,-166.3 257,-149.4"/>
<polygon fill="black" stroke="black" points="259.63,-148.94 257,-141.44 254.38,-148.94 259.63,-148.94"/>
<text text-anchor="middle" x="334" y="-168.45" font-family="DejaVu Sans" font-size="11.00">F3.8: Назначение анализа</text>
</g>
<!-- P3.1&#45;&gt;lab -->
<g id="edge1" class="edge">
<title>P3.1&#45;&gt;lab</title>
<path fill="none" stroke="black" stroke-dasharray="5,2" d="M314.13,-97.43C362.81,-80.22 432.33,-55.65 480.53,-38.61"/>
<polygon fill="black" stroke="black" points="481.58,-41.02 487.77,-36.05 479.83,-36.07 481.58,-41.02"/>
<text text-anchor="middle" x="479" y="-63.2" font-family="DejaVu Sans" font-size="11.00">F3.1: Направление [Д]</text>
</g>
<!-- D2 -->
<g id="node7" class="node">
<title>D2</title>
<text text-anchor="start" x="27" y="-450.91" font-family="DejaVu Sans" font-size="13.00">D2. Документы и карты /</text>
<text text-anchor="start" x="64" y="-436.91" font-family="DejaVu Sans" font-size="13.00">JPG, PDF, Excel</text>
<polyline fill="none" stroke="black" points="16,-422.31 212,-422.31 "/>
<polyline fill="none" stroke="black" points="212,-472.31 16,-472.31 "/>
</g>
<!-- P3.2&#45;&gt;D2 -->
<g id="edge5" class="edge">
<title>P3.2&#45;&gt;D2</title>
<path fill="none" stroke="black" d="M213.5,-536.07C178.25,-522.19 143,-508.31 143,-508.31 143,-508.31 136.13,-494.09 129.08,-479.5"/>
<polygon fill="black" stroke="black" points="131.26,-477.98 125.63,-472.37 126.53,-480.26 131.26,-477.98"/>
<text text-anchor="middle" x="223" y="-499.51" font-family="DejaVu Sans" font-size="11.00">F3.5: Документ результата</text>
</g>
<!-- D5 -->
<g id="node8" class="node">
<title>D5</title>
<text text-anchor="start" x="256" y="-450.91" font-family="DejaVu Sans" font-size="13.00">D5. Реестры анализов /</text>
<text text-anchor="start" x="319.5" y="-436.91" font-family="DejaVu Sans" font-size="13.00">Excel</text>
<polyline fill="none" stroke="black" points="244.5,-422.31 429.5,-422.31 "/>
<polyline fill="none" stroke="black" points="429.5,-472.31 244.5,-472.31 "/>
</g>
<!-- P3.2&#45;&gt;D5 -->
<g id="edge3" class="edge">
<title>P3.2&#45;&gt;D5</title>
<path fill="none" stroke="black" d="M298.48,-532.27C305.98,-515.93 315.1,-496.05 322.59,-479.73"/>
<polygon fill="black" stroke="black" points="325.16,-480.42 325.9,-472.51 320.38,-478.23 325.16,-480.42"/>
<text text-anchor="middle" x="375.5" y="-499.51" font-family="DejaVu Sans" font-size="11.00">F3.3: Запись реестра</text>
</g>
<!-- P3.3 -->
<g id="node6" class="node">
<title>P3.3</title>
<ellipse fill="#e7f0fb" stroke="black" cx="272" cy="-329.78" rx="144.91" ry="32.55"/>
<text text-anchor="middle" x="272" y="-333.38" font-family="DejaVu Sans" font-size="13.00">P3.3. Проверить и выдать</text>
<text text-anchor="middle" x="272" y="-319.38" font-family="DejaVu Sans" font-size="13.00">результат</text>
</g>
<!-- P3.3&#45;&gt;patient -->
<g id="edge7" class="edge">
<title>P3.3&#45;&gt;patient</title>
<path fill="none" stroke="black" d="M349.2,-302.16C390.52,-287.91 433,-273.25 433,-273.25 433,-273.25 450.75,-257.04 466.61,-242.54"/>
<polygon fill="black" stroke="black" points="468.56,-244.31 472.33,-237.32 465.02,-240.44 468.56,-244.31"/>
<text text-anchor="middle" x="533" y="-264.45" font-family="DejaVu Sans" font-size="11.00">F3.7: Собственный результат</text>
</g>
<!-- P3.3&#45;&gt;doctor -->
<g id="edge10" class="edge">
<title>P3.3&#45;&gt;doctor</title>
<path fill="none" stroke="black" d="M261.74,-297.13C257.7,-284.66 254,-273.25 254,-273.25 254,-273.25 254,-261.25 254,-261.25 254,-261.25 254.55,-253.71 255.18,-245.09"/>
<polygon fill="black" stroke="black" points="257.82,-245.08 255.75,-237.4 252.58,-244.69 257.82,-245.08"/>
<text text-anchor="middle" x="341.5" y="-264.45" font-family="DejaVu Sans" font-size="11.00">F3.10: Результат для лечения</text>
</g>
<!-- D2&#45;&gt;P3.1 -->
<g id="edge9" class="edge">
<title>D2&#45;&gt;P3.1</title>
<path fill="none" stroke="black" d="M108.44,-422.25C97.45,-374.7 74,-273.25 74,-273.25 74,-273.25 74,-261.25 74,-261.25 74,-261.25 138,-201.25 138,-201.25 138,-201.25 184.78,-169.17 219.68,-145.23"/>
<polygon fill="black" stroke="black" points="221.34,-147.27 226.04,-140.86 218.38,-142.94 221.34,-147.27"/>
<text text-anchor="middle" x="160" y="-264.45" font-family="DejaVu Sans" font-size="11.00">F3.9: Необходимые сведения</text>
</g>
<!-- D2&#45;&gt;P3.3 -->
<g id="edge6" class="edge">
<title>D2&#45;&gt;P3.3</title>
<path fill="none" stroke="black" d="M127.23,-422.25C136.41,-405.56 147,-386.31 147,-386.31 147,-386.31 173.16,-374.69 201.54,-362.08"/>
<polygon fill="black" stroke="black" points="202.61,-364.48 208.4,-359.03 200.48,-359.68 202.61,-364.48"/>
<text text-anchor="middle" x="222" y="-389.51" font-family="DejaVu Sans" font-size="11.00">F3.6: Документ пациента</text>
</g>
<!-- D5&#45;&gt;P3.3 -->
<g id="edge4" class="edge">
<title>D5&#45;&gt;P3.3</title>
<path fill="none" stroke="black" d="M323.37,-422.09C314.76,-406.79 303.45,-386.68 293.63,-369.22"/>
<polygon fill="black" stroke="black" points="295.77,-367.68 289.81,-362.43 291.2,-370.26 295.77,-367.68"/>
<text text-anchor="middle" x="378.5" y="-389.51" font-family="DejaVu Sans" font-size="11.00">F3.4: Результат и связь</text>
</g>
</g>
</svg>
