<?xml version="1.0" encoding="UTF-8" standalone="no"?>
<!DOCTYPE svg PUBLIC "-//W3C//DTD SVG 1.1//EN"
 "http://www.w3.org/Graphics/SVG/1.1/DTD/svg11.dtd">
<!-- Generated by graphviz version 2.42.4 (0)
 -->
<!-- Title: DFD Pages: 1 -->
<svg width="981pt" height="740pt"
 viewBox="0.00 0.00 981.20 739.91" xmlns="http://www.w3.org/2000/svg" xmlns:xlink="http://www.w3.org/1999/xlink">
<g id="graph0" class="graph" transform="scale(1 1) rotate(0) translate(21.6 718.31)">
<title>DFD</title>
<polygon fill="white" stroke="transparent" points="-21.6,21.6 -21.6,-718.31 959.6,-718.31 959.6,21.6 -21.6,21.6"/>
<text text-anchor="middle" x="469" y="-679.91" font-family="DejaVu Sans" font-size="16.00">Кадры, зарплата и налоговая отчётность</text>
<text text-anchor="middle" x="469" y="-661.91" font-family="DejaVu Sans" font-size="16.00">Меры защиты — предложения</text>
<text text-anchor="middle" x="469" y="-643.91" font-family="DejaVu Sans" font-size="16.00">Овал: операция · Прямоугольник: участник · Две линии: хранилище</text>
<text text-anchor="middle" x="469" y="-625.91" font-family="DejaVu Sans" font-size="16.00">[Д] и пунктир: допущение · П/Л/Д: статус в реестре · K1–K9: меры в data&#45;protection.md</text>
<g id="clust1" class="cluster">
<title>cluster_company</title>
<polygon fill="white" stroke="#94a3b8" stroke-dasharray="5,2" points="8,-100 8,-608.71 850,-608.71 850,-100 8,-100"/>
<text text-anchor="middle" x="429" y="-595.11" font-family="DejaVu Sans" font-size="12.00">Управляемый контур компании (не отдельные серверы)</text>
</g>
<!-- bank -->
<g id="node1" class="node">
<title>bank</title>
<polygon fill="#f1f3f5" stroke="black" points="702.5,-36 617.5,-36 617.5,0 702.5,0 702.5,-36"/>
<text text-anchor="middle" x="660" y="-14.6" font-family="DejaVu Sans" font-size="13.00">Банк [Д]</text>
</g>
<!-- tax -->
<g id="node2" class="node">
<title>tax</title>
<polygon fill="#f1f3f5" stroke="black" points="282,-36 110,-36 110,0 282,0 282,-36"/>
<text text-anchor="middle" x="196" y="-14.6" font-family="DejaVu Sans" font-size="13.00">Налоговый орган [Д]</text>
</g>
<!-- employee -->
<g id="node3" class="node">
<title>employee</title>
<polygon fill="#f1f3f5" stroke="black" points="635,-579.71 535,-579.71 535,-543.71 635,-543.71 635,-579.71"/>
<text text-anchor="middle" x="585" y="-558.31" font-family="DejaVu Sans" font-size="13.00">Сотрудник</text>
</g>
<!-- P5.1 -->
<g id="node5" class="node">
<title>P5.1</title>
<ellipse fill="#e8f5ee" stroke="black" cx="340" cy="-429.28" rx="129.3" ry="42.35"/>
<text text-anchor="middle" x="340" y="-439.88" font-family="DejaVu Sans" font-size="13.00">P5.1. Бухгалтер: вести</text>
<text text-anchor="middle" x="340" y="-425.88" font-family="DejaVu Sans" font-size="13.00">кадровый учёт</text>
<text text-anchor="middle" x="340" y="-411.88" font-family="DejaVu Sans" font-size="13.00">K1,K2,K3,K6,K8</text>
</g>
<!-- employee&#45;&gt;P5.1 -->
<g id="edge1" class="edge">
<title>employee&#45;&gt;P5.1</title>
<path fill="none" stroke="black" d="M551.54,-543.56C529.61,-532.32 505,-519.71 505,-519.71 505,-519.71 472,-495.71 472,-495.71 472,-495.71 446.1,-482.87 417.24,-468.56"/>
<polygon fill="black" stroke="black" points="418.14,-466.08 410.25,-465.1 415.81,-470.78 418.14,-466.08"/>
<text text-anchor="middle" x="579" y="-510.91" font-family="DejaVu Sans" font-size="11.00" fill="#166534">F5.1: Кадровые сведения</text>
<text text-anchor="middle" x="579" y="-498.91" font-family="DejaVu Sans" font-size="11.00" fill="#166534">K2,K3,K8</text>
</g>
<!-- accountant -->
<g id="node4" class="node">
<title>accountant</title>
<polygon fill="#f1f3f5" stroke="black" points="424,-579.71 204,-579.71 204,-543.71 424,-543.71 424,-579.71"/>
<text text-anchor="middle" x="314" y="-558.31" font-family="DejaVu Sans" font-size="13.00">Уполномоченный бухгалтер</text>
</g>
<!-- accountant&#45;&gt;P5.1 -->
<g id="edge9" class="edge">
<title>accountant&#45;&gt;P5.1</title>
<path fill="none" stroke="black" d="M312.75,-543.56C311.92,-532.32 311,-519.71 311,-519.71 311,-519.71 311,-495.71 311,-495.71 311,-495.71 314.28,-488.3 318.64,-478.47"/>
<polygon fill="black" stroke="black" points="321.16,-479.26 321.8,-471.34 316.36,-477.14 321.16,-479.26"/>
<text text-anchor="middle" x="389.5" y="-510.91" font-family="DejaVu Sans" font-size="11.00" fill="#166534">F5.9: Кадровые изменения</text>
<text text-anchor="middle" x="389.5" y="-498.91" font-family="DejaVu Sans" font-size="11.00" fill="#166534">K1,K6</text>
</g>
<!-- D4 -->
<g id="node8" class="node">
<title>D4</title>
<text text-anchor="start" x="235" y="-293.45" font-family="DejaVu Sans" font-size="13.00">D4. База 1С:Бухгалтерия</text>
<text text-anchor="start" x="260.5" y="-279.45" font-family="DejaVu Sans" font-size="13.00">K1,K2,K4,K6,K8,K9</text>
<polyline fill="none" stroke="black" points="223.5,-264.85 418.5,-264.85 "/>
<polyline fill="none" stroke="black" points="418.5,-314.85 223.5,-314.85 "/>
</g>
<!-- P5.1&#45;&gt;D4 -->
<g id="edge2" class="edge">
<title>P5.1&#45;&gt;D4</title>
<path fill="none" stroke="black" d="M274.93,-392.5C247.15,-377.23 221,-362.85 221,-362.85 221,-362.85 221,-338.85 221,-338.85 221,-338.85 241.37,-329.07 263.73,-318.34"/>
<polygon fill="black" stroke="black" points="265.08,-320.61 270.71,-314.99 262.81,-315.87 265.08,-320.61"/>
<text text-anchor="middle" x="286.5" y="-354.05" font-family="DejaVu Sans" font-size="11.00" fill="#166534">F5.2: Кадровая запись</text>
<text text-anchor="middle" x="286.5" y="-342.05" font-family="DejaVu Sans" font-size="11.00" fill="#166534">K1,K2,K4,K6,K8</text>
</g>
<!-- P5.2 -->
<g id="node6" class="node">
<title>P5.2</title>
<ellipse fill="#e8f5ee" stroke="black" cx="660" cy="-150.43" rx="118.59" ry="42.35"/>
<text text-anchor="middle" x="660" y="-161.03" font-family="DejaVu Sans" font-size="13.00">P5.2. 1С: рассчитать</text>
<text text-anchor="middle" x="660" y="-147.03" font-family="DejaVu Sans" font-size="13.00">зарплату</text>
<text text-anchor="middle" x="660" y="-133.03" font-family="DejaVu Sans" font-size="13.00">K1,K3,K6</text>
</g>
<!-- P5.2&#45;&gt;bank -->
<g id="edge5" class="edge">
<title>P5.2&#45;&gt;bank</title>
<path fill="none" stroke="black" stroke-dasharray="5,2" d="M660,-107.8C660,-86.72 660,-61.85 660,-43.8"/>
<polygon fill="black" stroke="black" points="662.63,-43.52 660,-36.02 657.38,-43.52 662.63,-43.52"/>
<text text-anchor="middle" x="750" y="-75.2" font-family="DejaVu Sans" font-size="11.00" fill="#166534">F5.5: Платёжные сведения [Д]</text>
<text text-anchor="middle" x="750" y="-63.2" font-family="DejaVu Sans" font-size="11.00" fill="#166534">K3,K4,K5</text>
</g>
<!-- P5.2&#45;&gt;employee -->
<g id="edge10" class="edge">
<title>P5.2&#45;&gt;employee</title>
<path fill="none" stroke="black" d="M735.72,-183.18C775.46,-199.85 816,-216.85 816,-216.85 816,-216.85 816,-240.85 816,-240.85 816,-240.85 758,-338.85 758,-338.85 758,-338.85 657,-519.71 657,-519.71 657,-519.71 639.43,-529.71 621.65,-539.84"/>
<polygon fill="black" stroke="black" points="620.34,-537.56 615.12,-543.56 622.93,-542.13 620.34,-537.56"/>
<text text-anchor="middle" x="848" y="-354.05" font-family="DejaVu Sans" font-size="11.00" fill="#166534">F5.10: Сведения о начислении</text>
<text text-anchor="middle" x="848" y="-342.05" font-family="DejaVu Sans" font-size="11.00" fill="#166534">K3,K4,K5,K7</text>
</g>
<!-- P5.2&#45;&gt;D4 -->
<g id="edge4" class="edge">
<title>P5.2&#45;&gt;D4</title>
<path fill="none" stroke="black" d="M572.34,-179.27C516.27,-197.08 454,-216.85 454,-216.85 454,-216.85 425,-240.85 425,-240.85 425,-240.85 403.63,-250.72 380.26,-261.5"/>
<polygon fill="black" stroke="black" points="379.01,-259.19 373.3,-264.71 381.21,-263.95 379.01,-259.19"/>
<text text-anchor="middle" x="535" y="-232.05" font-family="DejaVu Sans" font-size="11.00" fill="#166534">F5.4: Начисление зарплаты</text>
<text text-anchor="middle" x="535" y="-220.05" font-family="DejaVu Sans" font-size="11.00" fill="#166534">K2,K4,K6,K8</text>
</g>
<!-- P5.3 -->
<g id="node7" class="node">
<title>P5.3</title>
<ellipse fill="#e8f5ee" stroke="black" cx="196" cy="-150.43" rx="125.32" ry="42.35"/>
<text text-anchor="middle" x="196" y="-161.03" font-family="DejaVu Sans" font-size="13.00">P5.3. 1С: подготовить</text>
<text text-anchor="middle" x="196" y="-147.03" font-family="DejaVu Sans" font-size="13.00">отчётность</text>
<text text-anchor="middle" x="196" y="-133.03" font-family="DejaVu Sans" font-size="13.00">K1,K3,K6,K8</text>
</g>
<!-- P5.3&#45;&gt;tax -->
<g id="edge8" class="edge">
<title>P5.3&#45;&gt;tax</title>
<path fill="none" stroke="black" stroke-dasharray="5,2" d="M196,-107.8C196,-86.72 196,-61.85 196,-43.8"/>
<polygon fill="black" stroke="black" points="198.63,-43.52 196,-36.02 193.38,-43.52 198.63,-43.52"/>
<text text-anchor="middle" x="320.5" y="-75.2" font-family="DejaVu Sans" font-size="11.00" fill="#166534">F5.8: Регламентированная отчётность [Д]</text>
<text text-anchor="middle" x="320.5" y="-63.2" font-family="DejaVu Sans" font-size="11.00" fill="#166534">K3,K4,K5</text>
</g>
<!-- P5.3&#45;&gt;D4 -->
<g id="edge7" class="edge">
<title>P5.3&#45;&gt;D4</title>
<path fill="none" stroke="black" d="M125.21,-185.48C92.17,-201.38 60,-216.85 60,-216.85 60,-216.85 60,-240.85 60,-240.85 60,-240.85 143.48,-256.2 216.01,-269.54"/>
<polygon fill="black" stroke="black" points="215.59,-272.14 223.44,-270.91 216.54,-266.97 215.59,-272.14"/>
<text text-anchor="middle" x="142.5" y="-232.05" font-family="DejaVu Sans" font-size="11.00" fill="#166534">F5.7: Налоговые документы</text>
<text text-anchor="middle" x="142.5" y="-220.05" font-family="DejaVu Sans" font-size="11.00" fill="#166534">K2,K4,K6,K8</text>
</g>
<!-- D4&#45;&gt;P5.1 -->
<g id="edge11" class="edge">
<title>D4&#45;&gt;P5.1</title>
<path fill="none" stroke="black" d="M338.71,-315.13C347.39,-327.04 356,-338.85 356,-338.85 356,-338.85 356,-362.85 356,-362.85 356,-362.85 354.26,-369.98 351.92,-379.53"/>
<polygon fill="black" stroke="black" points="349.36,-378.93 350.13,-386.84 354.46,-380.18 349.36,-378.93"/>
<text text-anchor="middle" x="450.5" y="-354.05" font-family="DejaVu Sans" font-size="11.00" fill="#166534">F5.11: Существующие сведения</text>
<text text-anchor="middle" x="450.5" y="-342.05" font-family="DejaVu Sans" font-size="11.00" fill="#166534">K1,K4,K6</text>
</g>
<!-- D4&#45;&gt;P5.2 -->
<g id="edge3" class="edge">
<title>D4&#45;&gt;P5.2</title>
<path fill="none" stroke="black" d="M418.54,-273.4C507.12,-259.37 624,-240.85 624,-240.85 624,-240.85 632.08,-220.78 640.59,-199.65"/>
<polygon fill="black" stroke="black" points="643.11,-200.41 643.48,-192.48 638.24,-198.45 643.11,-200.41"/>
<text text-anchor="middle" x="720.5" y="-232.05" font-family="DejaVu Sans" font-size="11.00" fill="#166534">F5.3: Данные для начисления</text>
<text text-anchor="middle" x="720.5" y="-220.05" font-family="DejaVu Sans" font-size="11.00" fill="#166534">K1,K3,K4,K6</text>
</g>
<!-- D4&#45;&gt;P5.3 -->
<g id="edge6" class="edge">
<title>D4&#45;&gt;P5.3</title>
<path fill="none" stroke="black" d="M283.57,-264.57C265.21,-252.67 247,-240.85 247,-240.85 247,-240.85 235.27,-220.28 223.05,-198.86"/>
<polygon fill="black" stroke="black" points="225.26,-197.43 219.26,-192.21 220.7,-200.03 225.26,-197.43"/>
<text text-anchor="middle" x="334" y="-232.05" font-family="DejaVu Sans" font-size="11.00" fill="#166534">F5.6: Данные для отчётности</text>
<text text-anchor="middle" x="334" y="-220.05" font-family="DejaVu Sans" font-size="11.00" fill="#166534">K1,K3,K4,K6</text>
</g>
</g>
</svg>
