<?xml version="1.0" encoding="UTF-8" standalone="no"?>
<!DOCTYPE svg PUBLIC "-//W3C//DTD SVG 1.1//EN"
 "http://www.w3.org/Graphics/SVG/1.1/DTD/svg11.dtd">
<!-- Generated by graphviz version 2.42.4 (0)
 -->
<!-- Title: DFD Pages: 1 -->
<svg width="1175pt" height="648pt"
 viewBox="0.00 0.00 1175.20 647.91" xmlns="http://www.w3.org/2000/svg" xmlns:xlink="http://www.w3.org/1999/xlink">
<g id="graph0" class="graph" transform="scale(1 1) rotate(0) translate(21.6 626.31)">
<title>DFD</title>
<polygon fill="white" stroke="transparent" points="-21.6,21.6 -21.6,-626.31 1153.6,-626.31 1153.6,21.6 -21.6,21.6"/>
<text text-anchor="middle" x="566" y="-587.91" font-family="DejaVu Sans" font-size="16.00">Склад и закупки</text>
<text text-anchor="middle" x="566" y="-569.91" font-family="DejaVu Sans" font-size="16.00">Меры защиты — предложения</text>
<text text-anchor="middle" x="566" y="-551.91" font-family="DejaVu Sans" font-size="16.00">Овал: операция · Прямоугольник: участник · Две линии: хранилище</text>
<text text-anchor="middle" x="566" y="-533.91" font-family="DejaVu Sans" font-size="16.00">[Д] и пунктир: допущение · П/Л/Д: статус в реестре · K1–K9: меры в data&#45;protection.md</text>
<g id="clust1" class="cluster">
<title>cluster_company</title>
<polygon fill="white" stroke="#94a3b8" stroke-dasharray="5,2" points="8,-8 8,-516.71 792,-516.71 792,-8 8,-8"/>
<text text-anchor="middle" x="400" y="-503.11" font-family="DejaVu Sans" font-size="12.00">Управляемый контур компании (не отдельные серверы)</text>
</g>
<!-- supplier -->
<g id="node1" class="node">
<title>supplier</title>
<polygon fill="#f1f3f5" stroke="black" points="1014.5,-198.43 885.5,-198.43 885.5,-162.43 1014.5,-162.43 1014.5,-198.43"/>
<text text-anchor="middle" x="950" y="-177.03" font-family="DejaVu Sans" font-size="13.00">Поставщик [Д]</text>
</g>
<!-- P6.1 -->
<g id="node3" class="node">
<title>P6.1</title>
<ellipse fill="#e8f5ee" stroke="black" cx="531" cy="-337.28" rx="135.53" ry="42.35"/>
<text text-anchor="middle" x="531" y="-347.88" font-family="DejaVu Sans" font-size="13.00">P6.1. Склад / 1С: учесть</text>
<text text-anchor="middle" x="531" y="-333.88" font-family="DejaVu Sans" font-size="13.00">закупку и ТМЦ</text>
<text text-anchor="middle" x="531" y="-319.88" font-family="DejaVu Sans" font-size="13.00">K1,K2,K3,K6</text>
</g>
<!-- supplier&#45;&gt;P6.1 -->
<g id="edge1" class="edge">
<title>supplier&#45;&gt;P6.1</title>
<path fill="none" stroke="black" stroke-dasharray="5,2" d="M913.05,-198.46C856.77,-224.4 756,-270.85 756,-270.85 756,-270.85 695,-288.59 636.52,-305.6"/>
<polygon fill="black" stroke="black" points="635.5,-303.16 629.03,-307.77 636.97,-308.2 635.5,-303.16"/>
<text text-anchor="middle" x="898" y="-262.05" font-family="DejaVu Sans" font-size="11.00" fill="#166534">F6.1: Документы поставки [Д]</text>
<text text-anchor="middle" x="898" y="-250.05" font-family="DejaVu Sans" font-size="11.00" fill="#166534">K2,K3,K4</text>
</g>
<!-- warehouse -->
<g id="node2" class="node">
<title>warehouse</title>
<polygon fill="#f1f3f5" stroke="black" points="607.5,-487.71 454.5,-487.71 454.5,-451.71 607.5,-451.71 607.5,-487.71"/>
<text text-anchor="middle" x="531" y="-466.31" font-family="DejaVu Sans" font-size="13.00">Сотрудник склада</text>
</g>
<!-- warehouse&#45;&gt;P6.1 -->
<g id="edge9" class="edge">
<title>warehouse&#45;&gt;P6.1</title>
<path fill="none" stroke="black" d="M531,-451.65C531,-435.34 531,-409.94 531,-387.31"/>
<polygon fill="black" stroke="black" points="533.63,-387.26 531,-379.76 528.38,-387.26 533.63,-387.26"/>
<text text-anchor="middle" x="591.5" y="-418.91" font-family="DejaVu Sans" font-size="11.00" fill="#166534">F6.9: Движение ТМЦ</text>
<text text-anchor="middle" x="591.5" y="-406.91" font-family="DejaVu Sans" font-size="11.00" fill="#166534">K1,K3,K6</text>
</g>
<!-- P6.1&#45;&gt;supplier -->
<g id="edge2" class="edge">
<title>P6.1&#45;&gt;supplier</title>
<path fill="none" stroke="black" stroke-dasharray="5,2" d="M653.82,-318.96C791.29,-299.58 995,-270.85 995,-270.85 995,-270.85 995,-246.85 995,-246.85 995,-246.85 979.26,-223.97 966.4,-205.27"/>
<polygon fill="black" stroke="black" points="968.24,-203.31 961.82,-198.62 963.91,-206.28 968.24,-203.31"/>
<text text-anchor="middle" x="1063.5" y="-262.05" font-family="DejaVu Sans" font-size="11.00" fill="#166534">F6.2: Заказ закупки [Д]</text>
<text text-anchor="middle" x="1063.5" y="-250.05" font-family="DejaVu Sans" font-size="11.00" fill="#166534">K3,K4,K5</text>
</g>
<!-- P6.2 -->
<g id="node4" class="node">
<title>P6.2</title>
<ellipse fill="#e8f5ee" stroke="black" cx="206" cy="-180.43" rx="124.4" ry="42.35"/>
<text text-anchor="middle" x="206" y="-191.03" font-family="DejaVu Sans" font-size="13.00">P6.2. 1С: согласовать</text>
<text text-anchor="middle" x="206" y="-177.03" font-family="DejaVu Sans" font-size="13.00">бухгалтерский учёт</text>
<text text-anchor="middle" x="206" y="-163.03" font-family="DejaVu Sans" font-size="13.00">K1,K3,K6</text>
</g>
<!-- P6.1&#45;&gt;P6.2 -->
<g id="edge5" class="edge">
<title>P6.1&#45;&gt;P6.2</title>
<path fill="none" stroke="black" d="M407.42,-319.64C263.43,-300.26 45,-270.85 45,-270.85 45,-270.85 45,-246.85 45,-246.85 45,-246.85 81.79,-231.9 120.2,-216.29"/>
<polygon fill="black" stroke="black" points="121.43,-218.63 127.39,-213.37 119.45,-213.76 121.43,-218.63"/>
<text text-anchor="middle" x="125" y="-262.05" font-family="DejaVu Sans" font-size="11.00" fill="#166534">F6.5: Документы ТМЦ / OLE</text>
<text text-anchor="middle" x="125" y="-250.05" font-family="DejaVu Sans" font-size="11.00" fill="#166534">K1,K3,K4,K6</text>
</g>
<!-- D7 -->
<g id="node5" class="node">
<title>D7</title>
<text text-anchor="start" x="399" y="-191.03" font-family="DejaVu Sans" font-size="13.00">D7. База 1С:Торговля и</text>
<text text-anchor="start" x="459.5" y="-177.03" font-family="DejaVu Sans" font-size="13.00">склад</text>
<text text-anchor="start" x="419" y="-163.03" font-family="DejaVu Sans" font-size="13.00">K1,K2,K4,K6,K8,K9</text>
<polyline fill="none" stroke="black" points="388,-148.43 572,-148.43 "/>
<polyline fill="none" stroke="black" points="572,-212.43 388,-212.43 "/>
</g>
<!-- P6.1&#45;&gt;D7 -->
<g id="edge3" class="edge">
<title>P6.1&#45;&gt;D7</title>
<path fill="none" stroke="black" d="M476.9,-298.22C456.44,-283.83 438,-270.85 438,-270.85 438,-270.85 438,-246.85 438,-246.85 438,-246.85 446.4,-233.77 455.68,-219.31"/>
<polygon fill="black" stroke="black" points="458.14,-220.34 459.98,-212.61 453.72,-217.5 458.14,-220.34"/>
<text text-anchor="middle" x="510" y="-262.05" font-family="DejaVu Sans" font-size="11.00" fill="#166534">F6.3: Остатки и закупки</text>
<text text-anchor="middle" x="510" y="-250.05" font-family="DejaVu Sans" font-size="11.00" fill="#166534">K2,K4,K6</text>
</g>
<!-- P6.2&#45;&gt;P6.1 -->
<g id="edge6" class="edge">
<title>P6.2&#45;&gt;P6.1</title>
<path fill="none" stroke="black" d="M235.27,-221.69C252.52,-245.43 271,-270.85 271,-270.85 271,-270.85 348.65,-290.39 419.08,-308.12"/>
<polygon fill="black" stroke="black" points="418.83,-310.76 426.75,-310.04 420.11,-305.67 418.83,-310.76"/>
<text text-anchor="middle" x="350.5" y="-262.05" font-family="DejaVu Sans" font-size="11.00" fill="#166534">F6.6: Сведения учёта / OLE</text>
<text text-anchor="middle" x="350.5" y="-250.05" font-family="DejaVu Sans" font-size="11.00" fill="#166534">K1,K3,K4,K6</text>
</g>
<!-- D4 -->
<g id="node6" class="node">
<title>D4</title>
<text text-anchor="start" x="110" y="-44.6" font-family="DejaVu Sans" font-size="13.00">D4. База 1С:Бухгалтерия</text>
<text text-anchor="start" x="135.5" y="-30.6" font-family="DejaVu Sans" font-size="13.00">K1,K2,K4,K6,K8,K9</text>
<polyline fill="none" stroke="black" points="98.5,-16 293.5,-16 "/>
<polyline fill="none" stroke="black" points="293.5,-66 98.5,-66 "/>
</g>
<!-- P6.2&#45;&gt;D4 -->
<g id="edge7" class="edge">
<title>P6.2&#45;&gt;D4</title>
<path fill="none" stroke="black" d="M137.72,-144.8C106.78,-129.1 77,-114 77,-114 77,-114 77,-90 77,-90 77,-90 101.87,-79.97 128.88,-69.07"/>
<polygon fill="black" stroke="black" points="130.18,-71.38 136.15,-66.14 128.21,-66.51 130.18,-71.38"/>
<text text-anchor="middle" x="158.5" y="-105.2" font-family="DejaVu Sans" font-size="11.00" fill="#166534">F6.7: Бухгалтерская запись</text>
<text text-anchor="middle" x="158.5" y="-93.2" font-family="DejaVu Sans" font-size="11.00" fill="#166534">K2,K4,K6</text>
</g>
<!-- D7&#45;&gt;P6.1 -->
<g id="edge4" class="edge">
<title>D7&#45;&gt;P6.1</title>
<path fill="none" stroke="black" d="M530.52,-212.61C557.82,-229.46 586,-246.85 586,-246.85 586,-246.85 586,-270.85 586,-270.85 586,-270.85 578.9,-279.3 569.8,-290.12"/>
<polygon fill="black" stroke="black" points="567.71,-288.53 564.89,-295.96 571.73,-291.91 567.71,-288.53"/>
<text text-anchor="middle" x="667" y="-262.05" font-family="DejaVu Sans" font-size="11.00" fill="#166534">F6.4: Остатки и документы</text>
<text text-anchor="middle" x="667" y="-250.05" font-family="DejaVu Sans" font-size="11.00" fill="#166534">K1,K4,K6</text>
</g>
<!-- D4&#45;&gt;P6.2 -->
<g id="edge8" class="edge">
<title>D4&#45;&gt;P6.2</title>
<path fill="none" stroke="black" d="M220.28,-66.28C232.19,-78.19 244,-90 244,-90 244,-90 244,-114 244,-114 244,-114 239.45,-121.84 233.49,-132.09"/>
<polygon fill="black" stroke="black" points="231.13,-130.93 229.63,-138.73 235.67,-133.57 231.13,-130.93"/>
<text text-anchor="middle" x="298.5" y="-105.2" font-family="DejaVu Sans" font-size="11.00" fill="#166534">F6.8: Учёт закупок</text>
<text text-anchor="middle" x="298.5" y="-93.2" font-family="DejaVu Sans" font-size="11.00" fill="#166534">K1,K3,K4,K6</text>
</g>
</g>
</svg>
